<svg xmlns="http://www.w3.org/2000/svg" version="1.1"
  width="100%" height="100%" viewBox="0 0 1000 600">
  <rect width="1000" height="600" x="0" y="0" fill="#ffffff"/>
  <g>
    <rect width="333.3333333333333" height="333.3333333333333" rx="13.333333333333334"
      ry="13.333333333333334" y="226.52112858096757" fill="#694dc4"
      transform="matrix(0.6118485913739706,0,0,0.6118485913739705,0,59.42860444432071)"
      x="204.29891967773438"/>
    <path
      d="M354.44063288636613 468.18779008449695L354.44063288636613 468.18779008449695Q305.26262664963866 468.18779008449695 305.26262664963866 432.4735031344816L305.26262664963866 432.4735031344816Q305.26262664963866 426.94629205888396 306.48144755348835 420.62543016217495L306.48144755348835 420.62543016217495L309.1175020664657 405.5177198888748L345.8521972150529 405.5177198888748L344.6333763112032 412.2637518683221Q343.8113808179092 417.3657928611815 343.8113808179092 422.66624655931867Q343.8113808179092 427.96670025745584 346.4757800030691 431.45309493590975L346.4757800030691 431.45309493590975Q350.55741279735656 436.55513592876906 359.9394992897812 436.55513592876906Q369.3215857822059 436.55513592876906 375.1605882518116 431.45309493590975Q380.9712460492347 426.3510539430504 383.40888785693414 412.66057727887784L383.40888785693414 412.66057727887784L400.16058911682234 318.18778489443247L436.6685268879491 318.18778489443247L419.54834488968777 415.5233891693156Q414.8431293073842 442.67758512020026 399.14018091825045 455.4326876023486Q383.40888785693414 468.18779008449695 354.44063288636613 468.18779008449695Z "
      fill="#ffffff"
      transform="matrix(0.6118485913739706,0,0,0.6118485913739705,0,59.42860444432071)"/>
    <path
      d="M667.7226729599447 468.187786035597L667.7226729599447 468.187786035597Q620.9655761734812 468.187786035597 620.9655761734812 434.2316235278482L620.9655761734812 434.2316235278482Q620.9655761734812 428.97650313974424 622.1243975923963 422.9668013625792L622.1243975923963 422.9668013625792L624.6306857774921 408.6028056350949L659.5570243568909 408.6028056350949L658.3982029379756 415.01674744211414Q657.616672213591 419.867627800364 657.616672213591 424.9071535058791Q657.616672213591 429.9466792113942 660.1499097340104 433.26144745619825L660.1499097340104 433.26144745619825Q664.0306140206102 438.11232781444807 672.9508440127252 438.11232781444807Q681.8710740048401 438.11232781444807 687.4226370815038 433.26144745619825Q692.9472508228439 428.4105670979484 695.2648936606744 415.39403813664467L695.2648936606744 415.39403813664467L711.1919508369281 325.571903503052L745.9026947337379 325.571903503052L729.6252961982773 418.1159210043293Q725.1517065345581 443.93338424434785 710.221774765278 456.06058513997243Q695.2648936606744 468.187786035597 667.7226729599447 468.187786035597ZM806.2692058586247 369.4184720745657L806.2692058586247 369.4184720745657Q827.2088394050697 369.4184720745657 837.8807761932194 378.527347413946L837.8807761932194 378.527347413946Q846.2350701435387 385.7228199453499 846.2350701435387 398.52375422406476L846.2350701435387 398.52375422406476Q846.2350701435387 402.7817492051951 845.2648940718886 407.84822424603385L845.2648940718886 407.84822424603385L841.1955444380235 430.5395645885136Q837.5034854986889 451.1019074404282 824.0018685015602 459.64484673801263Q810.5272008397551 468.187786035597 788.0245058445407 468.187786035597Q765.5218108493261 468.187786035597 755.0385194084417 459.64484673801263L755.0385194084417 459.64484673801263Q747.277110835242 453.23090493099335 747.277110835242 440.42997065227854L747.277110835242 440.42997065227854Q747.277110835242 435.98333032388285 748.247286906892 430.5395645885136L748.247286906892 430.5395645885136L752.3166365407571 407.84822424603385Q759.1078690423069 369.4184720745657 806.2692058586247 369.4184720745657ZM808.9641393909858 426.2815696073832L811.4973769114051 411.72892853263374Q811.8746676059357 409.7885763893338 811.8746676059357 406.77025083308945Q811.8746676059357 403.7519252768451 809.3683794208398 400.0868156728341Q806.8351419004205 396.39475673349955 800.5289974346956 396.39475673349955Q794.222852968971 396.39475673349955 789.9648579878406 400.5719037086591Q785.6799136713864 404.7221013484951 784.5210922524714 411.72892853263374L784.5210922524714 411.72892853263374L782.0148040673755 426.2815696073832Q781.6105640375215 428.2219217506831 781.6105640375215 431.2132979716039Q781.6105640375215 434.2316235278482 784.1438015579408 437.70808778459394Q786.6500897430365 441.21150137666325 792.9562342087613 441.21150137666325Q799.262378674486 441.21150137666325 803.5473229909401 436.8457090542384Q807.8053179720705 432.47991673181355 808.9641393909858 426.2815696073832L808.9641393909858 426.2815696073832ZM924.2264465700664 369.4184720745657L924.2264465700664 369.4184720745657Q943.4413226558004 369.4184720745657 951.2027312290002 380.0904088627154L951.2027312290002 380.0904088627154Q957.0237876589001 387.66317208864984 957.0237876589001 398.52375422406476L957.0237876589001 398.52375422406476Q957.0237876589001 402.99734388778404 956.0536115872501 407.84822424603385L956.0536115872501 407.84822424603385L952.1729073006502 429.5693885168637Q948.8850883911698 448.1913792254783 935.0061806995104 458.18958263053764Q921.1272730078513 468.187786035597 900.0798421201118 468.187786035597Q879.0324112323722 468.187786035597 867.767589067103 459.83349208527784L867.767589067103 459.83349208527784Q858.8473590749882 453.23090493099335 858.8473590749882 441.4001467239285L858.8473590749882 441.4001467239285Q858.8473590749882 438.30097316171333 859.413295116784 435.0131542522329L859.413295116784 435.0131542522329L880.0025873040222 318.1877856243828L912.988573740121 318.1877856243828L903.0712183410324 374.6466431273461Q911.2368669440864 369.4184720745657 924.2264465700664 369.4184720745657ZM919.968451588936 425.31139353573326L922.4747397740318 410.75875246098377Q922.6903344566206 409.1956910122144 922.6903344566206 406.3929601385589Q922.6903344566206 403.56327992957983 920.2648942774958 400.3563090260702Q917.8394540983709 397.1762874578842 909.7816028366115 397.1762874578842Q901.723751574852 397.1762874578842 898.2203379827827 402.02716781613407L898.2203379827827 402.02716781613407L892.6148762354717 434.4202688751135Q894.9325190733023 440.2413253050133 902.3166369519713 440.2413253050133L902.3166369519713 440.2413253050133Q917.2465687212514 440.2413253050133 919.968451588936 425.31139353573326L919.968451588936 425.31139353573326ZM992.3274169328292 325.76054885031726L1046.6572769452275 325.76054885031726Q1072.0974494907155 325.76054885031726 1082.9580316261304 338.5614831290321L1082.9580316261304 338.5614831290321Q1090.9080855465954 348.26324384553175 1090.9080855465954 362.81588492028123L1090.9080855465954 362.81588492028123Q1090.9080855465954 368.0710053083852 1089.9379094749454 373.89206173828507L1089.9379094749454 373.89206173828507L1082.3651462490109 417.14574493267935Q1078.484441962411 439.08250388609804 1063.3658648458659 452.26072885934343Q1048.2203383939968 465.4659031679124 1024.154581950013 465.4659031679124L1024.154581950013 465.4659031679124L967.6957244470498 465.4659031679124L992.3274169328292 325.76054885031726ZM1034.449228043632 356.0246524187315L1034.449228043632 356.0246524187315L1021.8369391121826 356.0246524187315L1008.0658287618178 435.20179959949814L1026.499174123167 435.20179959949814Q1035.6080494625473 435.20179959949814 1040.755372509357 430.2431218999539Q1045.9026955561662 425.31139353573326 1047.8430476994663 414.0465713704642L1047.8430476994663 414.0465713704642L1053.4485094467773 382.2194063532806Q1054.2300401711618 377.96141137215017 1054.2300401711618 374.45799778008086L1054.2300401711618 374.45799778008086Q1054.2300401711618 356.0246524187315 1034.449228043632 356.0246524187315ZM1189.0845141305072 435.5790902940287L1189.0845141305072 435.5790902940287Q1189.0845141305072 440.6186159995438 1194.2318371773167 440.6186159995438Q1199.3791602241263 440.6186159995438 1202.855624480872 438.6782638562439L1202.855624480872 438.6782638562439L1201.885448409222 460.6150228096626Q1192.5879277225765 468.187786035597 1180.9458148627768 468.187786035597L1180.9458148627768 468.187786035597Q1159.6019412864778 468.187786035597 1157.2573491133235 452.66496888919755L1157.2573491133235 452.66496888919755Q1147.5555883968239 468.187786035597 1128.744952340944 468.187786035597L1128.744952340944 468.187786035597Q1096.9177873237604 468.187786035597 1096.9177873237604 440.8342106821327L1096.9177873237604 440.8342106821327Q1096.9177873237604 436.1719756711482 1097.8879633954105 430.5395645885136L1097.8879633954105 430.5395645885136L1101.9573130292756 407.84822424603385Q1105.0834359268142 390.38505495633444 1116.240460750789 379.98261152142095Q1127.3974855747636 369.60711742183105 1145.3457429002879 369.60711742183105Q1163.2940002258122 369.60711742183105 1169.680992697508 377.96141137215017L1169.680992697508 377.96141137215017L1170.651168769158 372.1403549422504L1200.160690948511 372.1403549422504L1189.2731594777724 433.26144745619825Q1189.0845141305072 434.4202688751135 1189.0845141305072 435.5790902940287ZM1134.1887180763133 411.72892853263374L1131.655480555894 426.2815696073832Q1131.2781898613634 428.00632706809427 1131.2781898613634 431.13244996563304Q1131.2781898613634 434.2316235278482 1134.1887180763133 437.2229997487689Q1137.0992462912632 440.2413253050133 1143.9713267987838 440.2413253050133Q1150.870356641628 440.2413253050133 1155.9098823471431 434.797559569644L1155.9098823471431 434.797559569644L1161.7309387770429 402.21581316339933Q1159.6019412864778 397.36493280514946 1151.6518873660127 397.36493280514946L1151.6518873660127 397.36493280514946Q1136.695006261409 397.36493280514946 1134.1887180763133 411.72892853263374L1134.1887180763133 411.72892853263374ZM1311.9195845355223 392.3254070996344L1311.9195845355223 392.3254070996344Q1311.9195845355223 398.71239957133 1308.0388802489226 404.1561653066993L1308.0388802489226 404.1561653066993L1276.211715231739 404.1561653066993Q1277.7747766805085 402.99734388778404 1277.7747766805085 400.2754610200994Q1277.7747766805085 397.5535781524148 1274.6486537829694 395.90966869767453Q1271.5494802207543 394.26575924293434 1266.6985998625046 394.26575924293434L1266.6985998625046 394.26575924293434Q1252.145958787755 394.26575924293434 1252.145958787755 403.1859892350493L1252.145958787755 403.1859892350493Q1252.145958787755 406.662453491795 1257.5897245231242 408.2255149405644Q1263.00654092317 409.7885763893338 1270.7679494963697 410.75875246098377Q1278.5293580695695 411.72892853263374 1286.290766642769 413.5614833346392Q1294.0521752159689 415.39403813664467 1299.495940951338 420.837803872014Q1304.9397066867075 426.2815696073832 1304.9397066867075 435.39044494676347L1304.9397066867075 435.39044494676347Q1304.9397066867075 451.5061474702824 1292.0309750666981 459.83349208527784Q1279.1222434466888 468.187786035597 1254.490550960909 468.187786035597Q1229.831909139806 468.187786035597 1219.9415030760408 460.237732115132L1219.9415030760408 460.237732115132Q1212.1800945028413 454.0124356553781 1212.1800945028413 443.1518535199632L1212.1800945028413 443.1518535199632Q1212.1800945028413 440.052679957748 1212.7729798799605 436.73791171294397L1212.7729798799605 436.73791171294397L1245.1660809389398 436.36062101841344Q1244.7887902444095 439.08250388609804 1248.3730518424495 441.1037040353688Q1251.9573134404898 443.1518535199632 1258.9371912893048 443.1518535199632Q1265.9170691381198 443.1518535199632 1269.0431920356586 441.69658941248827Q1272.142365597874 440.2413253050133 1272.142365597874 436.1719756711482L1272.142365597874 436.1719756711482Q1272.142365597874 433.4500928034635 1266.6985998625046 432.3721193905191Q1261.2817834624589 431.3210953128983 1253.4125775479647 430.5395645885136Q1245.5433716334705 429.75803386412895 1237.7011150543 428.00632706809427Q1229.831909139806 426.2815696073832 1224.4150927397602 420.6491585247487Q1218.9713270043908 415.01674744211414 1218.9713270043908 405.9078721027339L1218.9713270043908 405.9078721027339Q1218.9713270043908 388.22910813044564 1232.661589348785 378.7429420965349Q1246.3249023578553 369.22982672730046 1272.142365597874 369.22982672730046L1272.142365597874 369.22982672730046Q1311.9195845355223 369.22982672730046 1311.9195845355223 392.3254070996344ZM1422.1154166737645 440.6186159995438L1422.1154166737645 440.6186159995438Q1426.5890063374839 440.6186159995438 1430.092419929553 438.6782638562439L1430.092419929553 438.6782638562439L1429.1222438579032 460.6150228096626Q1419.9864191831991 468.187786035597 1408.3443063233997 468.187786035597L1408.3443063233997 468.187786035597Q1381.9609070415852 468.187786035597 1381.9609070415852 446.06238173491306L1381.9609070415852 446.06238173491306Q1381.9609070415852 442.1816774483132 1382.7424377659697 437.70808778459394L1382.7424377659697 437.70808778459394L1387.0004327471004 413.85792602319896Q1387.5933181242196 410.3545124311296 1387.5933181242196 406.87804817438393L1387.5933181242196 406.87804817438393Q1387.5933181242196 397.5535781524148 1377.7837600664257 397.5535781524148Q1368.0011513439551 397.5535781524148 1362.557385608586 404.1561653066993L1362.557385608586 404.1561653066993L1351.696803473171 465.4659031679124L1318.7108170370723 465.4659031679124L1344.716925624356 318.1877856243828L1377.702912060455 318.1877856243828L1366.626735242451 380.8719395871001Q1377.2986720306005 369.4184720745657 1393.4143745541196 369.4184720745657L1393.4143745541196 369.4184720745657Q1413.0065413343843 369.4184720745657 1418.827597764284 378.15005671941543L1418.827597764284 378.15005671941543Q1422.896947398149 383.9711131493152 1422.896947398149 391.13963634539556Q1422.896947398149 398.3351088767995 1421.738125979234 404.34481065396454L1421.738125979234 404.34481065396454L1416.5099549264535 433.26144745619825Q1416.2943602438647 434.4202688751135 1416.2943602438647 435.39044494676347L1416.2943602438647 435.39044494676347Q1416.2943602438647 440.6186159995438 1422.1154166737645 440.6186159995438Z "
      fill="#694dc4"
      transform="matrix(0.6118485913739706,0,0,0.6118485913739705,0,59.42860444432071)"/>
  </g>
</svg>
